<svg width="1712" height="1757" viewBox="0 0 1712 1757" fill="none" xmlns="http://www.w3.org/2000/svg">
<rect width="1712" height="1757" rx="100" fill="#FFCA19"/>
<path d="M372.577 472.288L681.693 1122.57" stroke="#0A3680" stroke-width="50" stroke-linecap="round"/>
<path d="M366.326 475.162L56.1134 1120.76" stroke="#0A3680" stroke-width="50" stroke-linecap="round"/>
<path d="M56.1133 1120.76C56.1133 1120.76 40.6095 1175.93 372.331 1175.93C704.052 1175.93 680.615 1124.37 680.615 1124.37M680.615 1124.37C689.321 1135.19 656.457 1221 356.105 1221C55.753 1221 56.1133 1120.76 56.1133 1120.76C56.1133 1120.76 50.3445 1053.7 356.105 1049.01C661.866 1044.32 668.716 1109.59 680.615 1124.37Z" stroke="#0A3680" stroke-width="50" stroke-linecap="round"/>
<path d="M1338.22 185.288L1029.1 835.566" stroke="#0A3680" stroke-width="50" stroke-linecap="round"/>
<path d="M1344.47 188.162L1654.68 833.762" stroke="#0A3680" stroke-width="50" stroke-linecap="round"/>
<path d="M1654.68 833.762C1654.68 833.762 1670.19 888.927 1338.46 888.928C1006.74 888.929 1030.18 837.368 1030.18 837.368M1030.18 837.368C1021.47 848.185 1054.34 934 1354.69 934C1655.04 934 1654.68 833.762 1654.68 833.762C1654.68 833.762 1660.45 766.696 1354.69 762.009C1048.93 757.321 1042.08 822.585 1030.18 837.368Z" stroke="#0A3680" stroke-width="50" stroke-linecap="round"/>
<path d="M369 466L855.5 315.5L1342 165M591.5 1598.5H1113H1151.74C1162.89 1598.5 1166.01 1582.32 1155.69 1578.09C1074.26 1544.71 925.5 1477.85 925.5 1435C925.5 1377.29 925.5 361.498 925.5 317.006C925.5 315.599 925.203 314.836 924.629 313.552L863.908 177.797C860.5 170.177 849.807 169.841 845.926 177.231L773.147 315.817C772.394 317.251 772 318.378 772 319.998C772 371.058 772 1384.31 772 1435C772 1473.31 620.823 1543.92 541.233 1578.44C531.133 1582.82 534.374 1598.5 545.383 1598.5H591.5Z" stroke="#0A3680" stroke-width="50" stroke-linecap="round"/>
</svg>
